<svg width="64" height="64" viewBox="0 0 64 64" fill="none" xmlns="http://www.w3.org/2000/svg">
<path opacity="0.2" d="M32 61C47.464 61 60 48.464 60 33C60 17.536 47.464 5 32 5C16.536 5 4 17.536 4 33C4 48.464 16.536 61 32 61Z" fill="black"/>
<path d="M32 60C47.464 60 60 47.464 60 32C60 16.536 47.464 4 32 4C16.536 4 4 16.536 4 32C4 47.464 16.536 60 32 60Z" fill="#3F3F3F"/>
<path opacity="0.2" d="M33 15V30.2031V40C33 42.7614 30.7614 45 28 45C25.2386 45 23 42.7614 23 40C23 37.2386 25.2386 35 28 35C28.3359 35.0002 28.6709 35.0342 29 35.1016V29.0547C28.6677 29.0213 28.334 29.003 28 29C21.9249 29 17 33.9249 17 40C17 46.0751 21.9249 51 28 51C34.0751 51 39 46.0751 39 40V27.2227C41.3682 28.839 43.9193 30 47 30V24.9336V23.625C45.3877 23.626 44.1133 23.1709 42.7461 22.3164V22.3204C40.9238 21.1835 39.5758 19.3769 39 17.2539L38.6 15H33Z" fill="black"/>
<path d="M33 14V29.2031V39C33 41.7614 30.7614 44 28 44C25.2386 44 23 41.7614 23 39C23 36.2386 25.2386 34 28 34C28.3359 34.0002 28.6709 34.0342 29 34.1016V28.0547C28.6677 28.0213 28.334 28.003 28 28C21.9249 28 17 32.9249 17 39C17 45.0751 21.9249 50 28 50C34.0751 50 39 45.0751 39 39V26.2227C41.3682 27.839 43.9193 29 47 29V23.9336V22.625C45.3877 22.626 44.1133 22.1709 42.7461 21.3164V21.3204C40.9238 20.1835 39.5758 18.3769 39 16.2539L38.6 14H33Z" fill="white"/>
<path opacity="0.1" d="M32 4C24.5739 4 17.452 6.94999 12.201 12.201C6.94999 17.452 4 24.5739 4 32C4.00442 32.1641 4.01028 32.3282 4.01758 32.4922C4.15062 25.1575 7.15684 18.168 12.3897 13.0268C17.6226 7.88562 24.6641 5.0034 32 5C39.3345 5.00544 46.3741 7.88857 51.6053 13.0296C56.8365 18.1705 59.8416 25.1589 59.9746 32.4922C59.9845 32.3282 59.993 32.1641 60 32C60 24.5739 57.05 17.452 51.799 12.201C46.548 6.94999 39.4261 4 32 4Z" fill="white"/>
</svg>
