<svg width="176" height="176" viewBox="0 0 176 176" fill="none" xmlns="http://www.w3.org/2000/svg">
<g filter="url(#filter0_f_14_15)">
<path d="M54.532 138.45L56.767 139.774C66.154 145.345 76.917 148.292 87.893 148.297H87.916C121.623 148.297 149.055 120.871 149.069 87.162C149.075 70.827 142.72 55.466 131.174 43.911C125.511 38.2124 118.774 33.6936 111.353 30.6163C103.932 27.5389 95.9739 25.9641 87.94 25.983C54.207 25.983 26.774 53.406 26.762 87.113C26.7454 98.623 29.9866 109.903 36.111 119.648L37.566 121.96L31.387 144.518L54.532 138.45ZM13.721 161.994L24.16 123.88C17.722 112.726 14.335 100.072 14.339 87.108C14.356 46.552 47.36 13.558 87.917 13.558C107.598 13.568 126.071 21.227 139.964 35.13C153.857 49.033 161.501 67.513 161.494 87.167C161.476 127.72 128.467 160.72 87.916 160.72H87.884C75.571 160.715 63.472 157.626 52.725 151.766L13.721 161.994Z" fill="#B3B3B3"/>
</g>
<path d="M12.966 161.238L23.405 123.124C16.9559 111.943 13.5684 99.2595 13.584 86.352C13.601 45.796 46.605 12.802 87.162 12.802C106.843 12.812 125.316 20.471 139.209 34.374C153.102 48.277 160.746 66.757 160.739 86.411C160.721 126.964 127.712 159.964 87.161 159.964H87.129C74.816 159.959 62.717 156.87 51.97 151.01L12.966 161.238Z" fill="white"/>
<path d="M87.184 25.227C53.451 25.227 26.018 52.65 26.006 86.357C25.9894 97.867 29.2306 109.147 35.355 118.892L36.81 121.205L30.631 143.763L53.777 137.694L56.012 139.018C65.399 144.589 76.162 147.535 87.138 147.541H87.161C120.868 147.541 148.301 120.115 148.314 86.406C148.339 78.3716 146.771 70.4119 143.699 62.9879C140.628 55.5638 136.114 48.8227 130.419 43.155C124.756 37.4563 118.019 32.9375 110.597 29.8601C103.176 26.7827 95.218 25.208 87.184 25.227Z" fill="url(#paint0_linear_14_15)"/>
<path fill-rule="evenodd" clip-rule="evenodd" d="M68.772 55.603C67.394 52.542 65.944 52.48 64.635 52.427L61.111 52.384C59.885 52.384 57.893 52.844 56.209 54.684C54.525 56.524 49.774 60.971 49.774 70.016C49.774 79.061 56.362 87.801 57.28 89.029C58.198 90.257 69.998 109.41 88.685 116.779C104.214 122.903 107.374 121.685 110.746 121.379C114.118 121.073 121.623 116.932 123.154 112.639C124.685 108.346 124.686 104.668 124.227 103.899C123.768 103.13 122.542 102.673 120.702 101.753C118.862 100.833 109.825 96.386 108.14 95.772C106.455 95.158 105.23 94.853 104.003 96.693C102.776 98.533 99.257 102.672 98.184 103.899C97.111 105.126 96.04 105.28 94.2 104.361C92.36 103.442 86.44 101.5 79.416 95.237C73.951 90.364 70.262 84.346 69.188 82.507C68.114 80.668 69.074 79.672 69.996 78.756C70.821 77.932 71.834 76.609 72.755 75.536C73.676 74.463 73.979 73.696 74.591 72.471C75.203 71.246 74.898 70.17 74.438 69.251C73.978 68.332 70.406 59.239 68.772 55.603Z" fill="white"/>
<defs>
<filter id="filter0_f_14_15" x="6.659" y="6.496" width="161.897" height="162.56" filterUnits="userSpaceOnUse" color-interpolation-filters="sRGB">
<feFlood flood-opacity="0" result="BackgroundImageFix"/>
<feBlend mode="normal" in="SourceGraphic" in2="BackgroundImageFix" result="shape"/>
<feGaussianBlur stdDeviation="3.531" result="effect1_foregroundBlur_14_15"/>
</filter>
<linearGradient id="paint0_linear_14_15" x1="85.915" y1="32.567" x2="86.535" y2="137.092" gradientUnits="userSpaceOnUse">
<stop stop-color="#57D163"/>
<stop offset="1" stop-color="#23B33A"/>
</linearGradient>
</defs>
</svg>
